<svg width="21" height="21" viewBox="0 0 21 21" fill="none" xmlns="http://www.w3.org/2000/svg">
<path d="M20.3816 20.1413V12.8166C20.3816 9.2167 19.6066 6.4668 15.4068 6.4668C13.3818 6.4668 12.0319 7.56676 11.4819 8.61672H11.4319V6.79179H7.45703V20.1413H11.6069V13.5166C11.6069 11.7666 11.9319 10.0917 14.0818 10.0917C16.2067 10.0917 16.2317 12.0666 16.2317 13.6166V20.1163H20.3816V20.1413Z" fill="white"/>
<path d="M0.707031 6.79492H4.85689V20.1445H0.707031V6.79492Z" fill="white"/>
<path d="M2.78273 0.144531C1.45778 0.144531 0.382812 1.21949 0.382812 2.54445C0.382812 3.8694 1.45778 4.96936 2.78273 4.96936C4.10768 4.96936 5.18265 3.8694 5.18265 2.54445C5.18265 1.21949 4.10768 0.144531 2.78273 0.144531Z" fill="white"/>
</svg>
